HIERARCHY
ROOT hip
{
	OFFSET 0.000000 0.000000 0.000000 
	CHANNELS 6 Xposition Yposition Zposition Xrotation Zrotation Yrotation
	JOINT abdomen
	{
		OFFSET 0.000000 3.402643 0.000000 
		CHANNELS 3 Xrotation Zrotation Yrotation
		JOINT chest
		{
			OFFSET 0.000000 8.438565 -0.680529 
			CHANNELS 3 Xrotation Zrotation Yrotation
			JOINT neck
			{
				OFFSET 0.000000 10.207942 -0.272212 
				CHANNELS 3 Xrotation Zrotation Yrotation
				JOINT head
				{
					OFFSET 0.000000 3.130431 0.000000 
					CHANNELS 3 Xrotation Zrotation Yrotation
					JOINT figureHair
					{
						OFFSET 0.000000 3.130435 0.000000 
						CHANNELS 3 Zrotation Yrotation Xrotation
						End Site
						{
							OFFSET 0.000000 -6.419331 0.000000 
						}
					}
				}
			}
			JOINT lCollar
			{
				OFFSET 3.470700 6.669187 -0.816635 
				CHANNELS 3 Yrotation Zrotation Xrotation
				JOINT lShldr
				{
					OFFSET 3.198488 0.000000 0.000000 
					CHANNELS 3 Zrotation Yrotation Xrotation
					JOINT lForeArm
					{
						OFFSET 10.139888 0.000000 0.000000 
						CHANNELS 3 Yrotation Zrotation Xrotation
						JOINT lHand
						{
							OFFSET 8.370511 0.000000 0.000000 
							CHANNELS 3 Zrotation Yrotation Xrotation
							End Site
							{
								OFFSET 4.083176 0.000000 0.000000 
							}
						}
					}
				}
			}
			JOINT rCollar
			{
				OFFSET -3.470700 6.669187 -0.816635 
				CHANNELS 3 Yrotation Zrotation Xrotation
				JOINT rShldr
				{
					OFFSET -3.198488 0.000000 0.000000 
					CHANNELS 3 Zrotation Yrotation Xrotation
					JOINT rForeArm
					{
						OFFSET -10.139888 0.000000 0.000000 
						CHANNELS 3 Yrotation Zrotation Xrotation
						JOINT rHand
						{
							OFFSET -8.370511 0.000000 0.000000 
							CHANNELS 3 Zrotation Yrotation Xrotation
							End Site
							{
								OFFSET -4.083176 0.000000 0.000000 
							}
						}
					}
				}
			}
		}
	}
	JOINT lThigh
	{
		OFFSET 5.308129 -1.633274 1.361059 
		CHANNELS 3 Xrotation Zrotation Yrotation
		JOINT lShin
		{
			OFFSET -2.041588 -20.007561 0.000000 
			CHANNELS 3 Xrotation Zrotation Yrotation
			JOINT lFoot
			{
				OFFSET 0.000000 -19.190928 -1.224953 
				CHANNELS 3 Xrotation Yrotation Zrotation
				End Site
				{
					OFFSET 0.000000 -2.449906 4.627600 
				}
			}
		}
	}
	JOINT rThigh
	{
		OFFSET -5.308129 -1.633274 1.361059 
		CHANNELS 3 Xrotation Zrotation Yrotation
		JOINT rShin
		{
			OFFSET 2.041588 -20.007561 0.000000 
			CHANNELS 3 Xrotation Zrotation Yrotation
			JOINT rFoot
			{
				OFFSET 0.000000 -19.190928 -1.224953 
				CHANNELS 3 Xrotation Yrotation Zrotation
				End Site
				{
					OFFSET 0.000000 -2.449906 4.627600 
				}
			}
		}
	}
}
MOTION
Frames: 11
Frame Time: 0.041667
1.028134 46.836681 4.134919 9.312881 0.000000 0.000000 -1.576140 0.833666 22.668917 12.015497 1.136605 -0.373835 -17.393171 0.000000 0.000000 3.451280 -6.143107 -0.964044 0.000000 0.000000 0.000000 1.703443 -5.665942 -0.199443 -30.947838 1.423085 23.314495 -95.132111 -49.204861 16.483610 -46.617401 6.048495 37.155701 28.382200 4.561054 -0.321408 25.057899 8.150656 -7.179600 126.554222 0.471843 -24.268513 -4.200000 19.799999 45.200001 -29.590624 7.468179 -0.263304 19.805582 -3.306544 -1.484697 0.072617 0.170768 -4.072389 -20.870157 -8.082706 0.272526 31.119658 3.607598 2.164375 -19.879707 -1.467974 3.678415 
1.029427 46.834515 4.117001 9.313214 0.000000 0.000000 -1.692729 0.832862 22.668690 12.013825 1.134708 -0.373864 -17.396599 0.000000 0.000000 3.451402 -6.142882 -0.900028 0.000000 0.000000 0.000000 1.702124 -5.666093 -0.199643 -30.867334 1.455335 23.393259 -95.164543 -49.182755 16.505354 -46.617401 6.048496 37.155701 28.382200 4.559860 -0.321257 30.519564 8.151023 -7.179600 126.462242 -17.442675 -24.247055 -15.400000 20.599998 41.400002 -29.671875 7.468882 -0.272173 19.823984 -3.317408 -1.477420 0.137748 0.164905 -4.062722 -20.954082 -8.084841 0.281622 31.118649 3.617323 2.166876 -19.810354 -1.479210 3.677332 
1.029429 46.834114 4.101968 9.310257 0.000000 0.000000 -1.828770 0.831224 22.659153 12.000303 1.131508 -0.373977 -17.395441 0.000000 0.000000 3.452204 -6.141402 -0.839732 0.000000 0.000000 0.000000 1.701319 -5.666348 -0.199778 -30.786831 1.487584 23.472023 -95.196976 -49.170368 16.514942 -46.617401 6.048496 37.155701 28.382200 4.560739 -0.321403 37.032467 8.151262 -7.179600 126.417030 -38.804131 -24.231539 -26.600000 21.400000 37.600002 -29.730028 7.478618 -0.273778 19.824110 -3.320823 -1.458489 0.205445 0.149233 -4.072556 -21.010389 -8.074201 0.280552 31.118307 3.617293 2.176575 -19.751087 -1.486222 3.667104 
1.028139 46.835884 4.086876 9.306967 0.000000 0.000000 -1.941426 0.830389 22.649843 11.988454 1.130206 -0.374061 -17.390854 0.000000 0.000000 3.452884 -6.140149 -0.782935 0.000000 0.000000 0.000000 1.701833 -5.666451 -0.199713 -30.706329 1.519834 23.550787 -95.229416 -49.180088 16.502787 -46.617401 6.048496 37.155701 28.382200 4.562812 -0.321699 42.483711 8.151134 -7.179600 126.463852 -56.795105 -24.237480 -37.799999 22.200001 33.800003 -29.780298 7.478941 -0.273310 19.824312 -3.317459 -1.468265 0.247223 0.157224 -4.072622 -21.074654 -8.072717 0.290585 31.117300 3.627018 2.179075 -19.681755 -1.496842 3.656376 
1.025553 46.840214 4.068787 9.306300 0.000000 0.000000 -1.987860 0.831997 22.650299 11.991800 1.134000 -0.374003 -17.384001 0.000000 0.000000 3.452640 -6.140600 -0.729419 0.000000 0.000000 0.000000 1.704470 -5.666150 -0.199313 -30.625826 1.552083 23.629551 -95.261856 -49.224300 16.459299 -46.617401 6.048496 37.155701 28.382200 4.565200 -0.322000 44.760399 8.150400 -7.179600 126.648003 -64.598228 -24.280399 -49.000000 23.000000 30.000000 -29.829203 7.488795 -0.284649 19.822578 -3.330393 -1.459961 0.313446 0.159246 -4.072724 -21.130556 -8.065476 0.298381 31.127129 3.627040 2.179806 -19.632299 -1.503476 3.655859 
1.021927 46.846916 4.046422 9.310097 0.000000 0.000000 -1.941453 0.836869 22.666193 12.018122 1.144430 -0.373740 -17.376259 0.000000 0.000000 3.451015 -6.143598 -0.678976 0.000000 0.000000 0.000000 1.709450 -5.665322 -0.198537 -30.545322 1.584333 23.708317 -95.294289 -49.306011 16.383072 -46.617401 6.048497 37.155701 28.382200 4.567137 -0.322187 42.455105 8.148991 -7.179600 126.978210 -57.633720 -24.365314 -37.799999 22.200001 33.799999 -29.867247 7.498401 -0.286462 19.832472 -3.330429 -1.460637 0.333324 0.163150 -4.082528 -21.184395 -8.063759 0.308483 31.136957 3.627063 2.180536 -19.592722 -1.508874 3.655433 
1.018560 46.853420 4.025182 9.315736 0.000000 0.000000 -1.840469 0.842564 22.687765 12.052223 1.156400 -0.373415 -17.369896 0.000000 0.000000 3.448933 -6.147438 -0.631403 0.000000 0.000000 0.000000 1.714650 -5.664371 -0.197720 -30.464821 1.616583 23.787081 -95.326721 -49.390736 16.305443 -46.617401 6.048497 37.155701 28.382200 4.568308 -0.322257 36.982403 8.147511 -7.179600 127.317154 -40.271793 -24.455250 -26.599998 21.400002 37.599998 -29.896042 7.508132 -0.298001 19.832472 -3.330429 -1.460637 0.363557 0.167775 -4.092350 -21.223518 -8.073591 0.319389 31.146137 3.636617 2.174012 -19.563936 -1.500715 3.667011 
1.017004 46.856579 4.012127 9.319475 0.000000 0.000000 -1.739385 0.845823 22.701387 12.073163 1.163155 -0.373221 -17.367401 0.000000 0.000000 3.447663 -6.149779 -0.586507 0.000000 0.000000 0.000000 1.717359 -5.663835 -0.197291 -30.384319 1.648832 23.865845 -95.359161 -49.434608 16.265926 -46.617401 6.048497 37.155701 28.382200 4.568511 -0.322234 30.462351 8.146735 -7.179600 127.490959 -19.120003 -24.502724 -15.399999 20.600000 41.399998 -29.926205 7.508325 -0.297728 19.841200 -3.339848 -1.453029 0.374941 0.166295 -4.082592 -21.244263 -8.074030 0.319246 31.155966 3.636639 2.174743 -19.564034 -1.499370 3.667245 
1.018816 46.853226 4.014328 9.317576 0.000000 0.000000 -1.692686 0.843386 22.693438 12.060001 1.157941 -0.373353 -17.371275 0.000000 0.000000 3.448476 -6.148280 -0.544102 0.000000 0.000000 0.000000 1.714869 -5.664249 -0.197679 -30.303816 1.681082 23.944611 -95.391602 -49.393753 16.304039 -46.617401 6.048497 37.155701 28.382200 4.567543 -0.322140 25.014999 8.147440 -7.179600 127.325768 -0.786104 -24.460266 -4.199999 19.799999 45.199997 -29.924135 7.517260 -0.299824 19.851297 -3.336524 -1.462916 0.367382 0.182383 -4.102158 -21.245087 -8.074327 0.328915 31.155966 3.636640 2.174742 -19.573736 -1.500367 3.667041 
1.025553 46.840214 4.038844 9.306300 0.000000 0.000000 -1.754850 0.831997 22.650299 11.991800 1.134000 -0.374003 -17.384001 0.000000 0.000000 3.452640 -6.140600 -0.504009 0.000000 0.000000 0.000000 1.704470 -5.666150 -0.199313 -30.223312 1.713331 24.023376 -95.424034 -49.224300 16.459299 -46.617401 6.048498 37.155701 28.382200 4.565200 -0.322000 22.760401 8.150400 -7.179600 126.647697 8.122200 -24.280399 7.000000 19.000000 49.000000 -29.906902 7.508382 -0.307536 19.860991 -3.339925 -1.454383 0.355670 0.183897 -4.082619 -21.196405 -8.064570 0.327752 31.135290 3.646323 2.175784 -19.583385 -1.502389 3.647026 
1.037472 46.816948 4.086145 9.284528 0.000000 0.000000 -1.957011 0.810838 22.568108 11.862813 1.089674 -0.375223 -17.405802 0.000000 0.000000 3.460501 -6.126101 -0.466057 0.000000 0.000000 0.000000 1.685576 -5.669670 -0.202287 -30.142811 1.745581 24.102140 -95.456467 -48.916870 16.739887 -46.617401 6.048498 37.155701 28.382200 4.561594 -0.321842 25.108047 8.155787 -7.179600 125.420219 3.035050 -23.952621 -4.200000 19.799999 45.200001 -29.855925 7.507459 -0.298272 19.871416 -3.336644 -1.454548 0.315909 0.175411 -4.092298 -21.112268 -8.065929 0.327536 31.096308 3.646267 2.163157 -19.612898 -1.500622 3.646943 
